<?xml version="1.0" encoding="UTF-8" standalone="no"?>
<svg
   xmlns:dc="http://purl.org/dc/elements/1.1/"
   xmlns:cc="http://creativecommons.org/ns#"
   xmlns:rdf="http://www.w3.org/1999/02/22-rdf-syntax-ns#"
   xmlns:svg="http://www.w3.org/2000/svg"
   xmlns="http://www.w3.org/2000/svg"
   version="1.1"
   id="svg4143"
   viewBox="0 0 48 48"
   height="48"
   width="48">
  <defs
     id="defs4145" />
  <metadata
     id="metadata4148">
    <rdf:RDF>
      <cc:Work
         rdf:about="">
        <dc:format>image/svg+xml</dc:format>
        <dc:type
           rdf:resource="http://purl.org/dc/dcmitype/StillImage" />
        <dc:title></dc:title>
      </cc:Work>
    </rdf:RDF>
  </metadata>
  <g
     transform="translate(-254.72898,-325.11479)"
     id="layer1">
    <path
       id="path11696"
       d="m 262.29433,373.03496 c -1.78277,-0.22905 -7.45483,-1.41441 -7.56213,-1.58035 -0.0467,-0.0722 0.42092,-1.87377 1.03922,-4.0034 5.55166,-19.12199 14.30579,-33.85828 23.31089,-39.2405 4.31776,-2.58065 8.73665,-3.57902 12.7384,-2.87799 2.44887,0.429 7.44506,2.22947 7.82742,2.82077 0.12265,0.18967 -8.75043,8.79617 -19.71794,19.12559 -25.01171,23.55649 -25.04378,23.58712 -24.91179,23.79124 0.0602,0.0931 1.54147,-0.87774 3.29167,-2.15746 1.75021,-1.27971 4.02437,-2.94151 5.05369,-3.69289 1.02932,-0.75139 6.56358,-4.93903 12.29837,-9.3059 5.73478,-4.36686 14.17087,-10.77555 18.74687,-14.24151 l 8.31998,-6.30176 -0.38054,2.32102 c -1.29158,7.87762 -3.75609,14.74276 -7.29138,20.31087 -6.07615,9.56999 -15.21494,14.68995 -26.8809,15.0599 -2.49978,0.0793 -5.1466,0.0668 -5.88183,-0.0276 z"
       style="fill:#137313;fill-opacity:1" />
  </g>
</svg>
